<svg width="310" height="131" viewBox="0 0 310 131" fill="none" xmlns="http://www.w3.org/2000/svg">
<path d="M107.429 0.0275258C62.0411 0.155752 36.9977 2.10278 26.2512 21.964C21.3106 31.3168 18.1951 43.1156 18.1304 65.5002C18.1943 87.8833 21.3106 99.6806 26.2512 109.035C36.9977 128.898 62.0388 130.842 107.429 130.973C145.205 131.071 182.982 130.903 220.759 130.468C266.149 129.933 291.186 127.757 301.906 108.216C306.839 99.01 309.938 87.4398 310 65.5002C309.936 43.5564 306.837 31.9893 301.907 22.7845C291.187 3.24443 266.15 1.06922 220.759 0.532685C182.982 0.0972564 145.205 -0.0716465 107.429 0.0275258Z" fill="white"/>
<path d="M28.3336 79.6388C23.2942 83.1656 9.7301 84.0012 2.4203 80.9474C1.2144 80.4438 -0.105016 81.4053 0.00658403 82.7073C0.535522 88.8738 4.80575 102.368 31.73 104.539C66.8263 107.368 28.3336 79.6388 28.3336 79.6388Z" fill="white"/>
</svg>
