<svg width="310" height="131" viewBox="0 0 310 131" fill="none" xmlns="http://www.w3.org/2000/svg">
<path d="M202.571 0.0275258C247.959 0.155752 273.002 2.10278 283.749 21.964C288.689 31.3168 291.805 43.1156 291.87 65.5002C291.806 87.8833 288.689 99.6806 283.749 109.035C273.002 128.898 247.961 130.842 202.571 130.973C164.795 131.071 127.018 130.903 89.2412 130.468C43.851 129.933 18.8135 127.757 8.09371 108.216C3.16084 99.01 0.0616125 87.4398 0 65.5002C0.06355 43.5564 3.16277 31.9893 8.09332 22.7845C18.8131 3.24443 43.8495 1.06922 89.2412 0.532685C127.018 0.0972564 164.795 -0.0716465 202.571 0.0275258Z" fill="white"/>
<path d="M281.666 79.6388C286.706 83.1656 300.27 84.0012 307.58 80.9474C308.786 80.4438 310.105 81.4053 309.993 82.7073C309.464 88.8738 305.194 102.368 278.27 104.539C243.174 107.368 281.666 79.6388 281.666 79.6388Z" fill="white"/>
</svg>
