<!--?xml version="1.0" encoding="utf-8"?-->
<!-- Generator: Adobe Illustrator 25.2.3, SVG Export Plug-In . SVG Version: 6.00 Build 0)  -->
<svg version="1.1" id="_x34_" xmlns="http://www.w3.org/2000/svg" xmlns:xlink="http://www.w3.org/1999/xlink" x="0px" y="0px" viewBox="0 0 800 338.159" style="enable-background:new 0 0 800 338.159;" xml:space="preserve">
<style type="text/css">
	.st0{fill:#FFFFFF;}
</style>
<g>
	<g>
		<path class="st0" d="M522.765,0.071c117.129,0.331,181.757,5.357,209.49,56.626c12.75,24.143,20.79,54.6,20.957,112.383
			c-0.165,57.779-8.207,88.232-20.957,112.38c-27.733,51.274-92.355,56.291-209.49,56.629c-97.488,0.253-194.977-0.18-292.465-1.304
			c-117.136-1.381-181.749-6.998-209.413-57.441C8.157,255.581,0.159,225.714,0,169.08c0.164-56.645,8.162-86.504,20.886-110.265
			C48.55,8.375,113.16,2.76,230.3,1.375C327.788,0.251,425.277-0.185,522.765,0.071z"></path>
	</g>
	<path class="st0" d="M726.881,205.577c13.005,9.104,48.009,11.261,66.873,3.378c3.112-1.3,6.517,1.182,6.229,4.543
		c-1.365,15.918-12.385,50.752-81.867,56.356C627.545,277.157,726.881,205.577,726.881,205.577z"></path>
</g>
</svg>
